<svg xmlns="http://www.w3.org/2000/svg" viewBox="0 0 70 116">
  <circle cx="28" cy="13" r="9" fill="#161616"/>
  <path
    fill="#161616"
    d="M19 27
       C24 23 33 23 38 28
       L43 38
       L45 46
       L48 53
       L46 57
       L39 54
       L32 64
       L27 81
       L16 104
       L8 104
       L18 79
       L27 64
       L32 64
       L36 73
       L43 104
       L51 104
       L42 72
       L37 61
       L35 47
       L41 53
       L45 52
       L45 44
       L39 34
       Z"
  />
  <path
    fill="#161616"
    d="M37 41
       L43 44
       L44 51
       L40 54
       L36 48
       Z"
  />
</svg>
