<svg xmlns="http://www.w3.org/2000/svg" viewBox="0 0 70 116">
  <circle cx="27" cy="13" r="9" fill="#161616"/>
  <path
    fill="#161616"
    d="M20 24
       C26 22 33 22 39 27
       L44 37
       L55 45
       L53 51
       L45 50
       L38 45
       L34 64
       L24 64
       L20 46
       L12 58
       L10 74
       L3 73
       L4 53
       L11 35
       Z"
  />
  <path
    fill="#161616"
    d="M24 64
       L22 79
       L10 104
       L2 104
       L10 83
       L14 64
       Z"
  />
  <path
    fill="#161616"
    d="M31 64
       L38 80
       L50 104
       L58 104
       L47 79
       L38 64
       Z"
  />
</svg>
