<svg xmlns="http://www.w3.org/2000/svg" viewBox="0 0 70 116">
  <circle cx="28" cy="13" r="9" fill="#161616"/>
  <path
    fill="#161616"
    d="M21 24
       C27 22 34 23 39 28
       L44 38
       L53 46
       L51 52
       L44 51
       L37 46
       L34 64
       L24 64
       L20 48
       L13 57
       L11 74
       L4 73
       L6 54
       L12 36
       Z"
  />
  <path
    fill="#161616"
    d="M24 64
       L25 83
       L19 104
       L12 104
       L17 83
       L17 64
       Z"
  />
  <path
    fill="#161616"
    d="M31 64
       L36 80
       L45 104
       L53 104
       L44 80
       L40 64
       Z"
  />
</svg>
