<svg xmlns="http://www.w3.org/2000/svg" viewBox="0 0 70 116">
  <circle cx="28" cy="13" r="9" fill="#161616"/>
  <path
    fill="#161616"
    d="M21 24
       C26 23 32 23 37 27
       L42 38
       L52 47
       L50 53
       L42 51
       L35 44
       L33 63
       L23 63
       L20 45
       L13 57
       L12 74
       L5 73
       L5 54
       L12 35
       Z"
  />
  <path
    fill="#161616"
    d="M25 63
       L21 82
       L13 105
       L6 104
       L11 82
       L15 63
       Z"
  />
  <path
    fill="#161616"
    d="M31 63
       L36 82
       L44 105
       L51 105
       L46 81
       L40 63
       Z"
  />
</svg>
