<svg xmlns="http://www.w3.org/2000/svg" viewBox="0 0 70 116">
  <circle cx="29" cy="13" r="9" fill="#161616"/>
  <path
    fill="#161616"
    d="M22 24
       C28 22 35 22 40 27
       L44 37
       L49 48
       L61 53
       L60 59
       L51 60
       L42 55
       L34 64
       L24 64
       L19 46
       L13 35
       L6 40
       L3 58
       L-1 58
       L0 38
       L12 30
       Z"
  />
  <path
    fill="#161616"
    d="M24 64
       L31 80
       L43 104
       L51 104
       L40 79
       L31 64
       Z"
  />
  <path
    fill="#161616"
    d="M31 64
       L30 82
       L22 104
       L14 104
       L21 82
       L23 64
       Z"
  />
</svg>
