<svg xmlns="http://www.w3.org/2000/svg" viewBox="0 0 70 116">
  <circle cx="28" cy="13" r="9" fill="#161616"/>
  <path
    fill="#161616"
    d="M21 24
       C27 22 34 23 39 28
       L42 40
       L47 50
       L58 56
       L57 62
       L49 63
       L41 58
       L34 64
       L24 64
       L19 48
       L14 37
       L7 41
       L4 58
       L-1 58
       L2 39
       L12 31
       Z"
  />
  <path
    fill="#161616"
    d="M24 64
       L28 82
       L38 104
       L46 104
       L37 81
       L32 64
       Z"
  />
  <path
    fill="#161616"
    d="M31 64
       L28 83
       L18 104
       L10 104
       L19 82
       L22 64
       Z"
  />
</svg>
