<svg xmlns="http://www.w3.org/2000/svg" viewBox="0 0 70 116">
  <circle cx="30" cy="13" r="9" fill="#161616"/>
  <path
    fill="#161616"
    d="M21 27
       C26 23 35 23 40 28
       L44 38
       L46 46
       L49 54
       L47 58
       L41 55
       L34 64
       L29 81
       L20 104
       L12 104
       L22 80
       L27 64
       L33 64
       L38 74
       L47 104
       L55 104
       L45 73
       L40 62
       L38 47
       L43 54
       L47 53
       L47 44
       L41 34
       Z"
  />
  <path
    fill="#161616"
    d="M39 41
       L45 44
       L46 52
       L42 56
       L38 50
       Z"
  />
</svg>
